<?xml version="1.0" encoding="UTF-8"?>
<!DOCTYPE svg  PUBLIC '-//W3C//DTD SVG 1.1//EN'  'http://www.w3.org/Graphics/SVG/1.1/DTD/svg11.dtd'>
<svg width="703pt" height="139pt" version="1.1" viewBox="0 0 703 139" xmlns="http://www.w3.org/2000/svg">
<g fill="#74bb50">
<path d="m122.22 1.38c11.22 1.32 22.87 3.58 32.06 10.57 10.08 7.27 14 20.44 13.1 32.42-6.94 0.22-14.25 1.15-20.8-1.75-7.5-2.79-13.16-8.88-17.28-15.54-4.44-7.79-7.34-16.66-7.08-25.7z"/>
<path d="m9.51 49.58c5.29-3.86 12.08-4.88 18.49-4.82 19.99 0.13 39.98-0.09 59.97-0.08 4.6-0.1 9.15 0.66 13.71 1.07-1.41 7.25-5.76 13.87-11.98 17.85-7.4 3.58-15.8 2.78-23.73 3.74-17.63 0.43-35.27 0.18-52.9 0.03-3.28 0.01-6.51-0.55-9.75-0.96 1.02-5.85 1.31-12.67 6.19-16.83z"/>
<path d="m397.68 91.97c4.88-0.41 9.17-2.94 13.89-4-0.53 13.87-1.63 27.79-0.64 41.66-0.11 3.27 3.11 4.56 5.27 6.3 2.03-1.03 4.07-2.03 6.15-2.97 0.56-12.78 0.45-25.59 0.14-38.38-1.64-0.02-3.27-0.05-4.9-0.08 0-0.43 0-1.28-0.01-1.71 5.03-1.33 9.78-3.51 14.82-4.8-0.02 15.12-1.97 30.31 0.07 45.38 1.33 0.42 2.66 0.87 4 1.3 0.06 0.5 0.2 1.49 0.27 1.98-13.78-0.3-27.57 0.39-41.33-0.35 1.99-1.35 4.03-2.63 6.07-3.91 0.58-6.79 1.04-13.61 0.5-20.43-0.44-5.5 0.13-11.05-0.46-16.54-1.3-0.78-2.86-0.86-4.3-1.21 0.15-0.75 0.3-1.5 0.46-2.24z"/>
<path d="m273.78 92.79c7.13-6.19 17.36-4.51 25.75-2.41-0.04 4.11-0.06 8.21 0.06 12.32-1.08 0.01-2.15 0.01-3.22 0.02-0.7-2.28-1.46-4.55-2.15-6.83-2.33-1.93-4.96-4.07-8.22-3.51-4.16-0.23-6.76 4.03-6.79 7.78 4.71 7.96 15.85 7.94 20.78 15.66 3.8 6.63 1.4 16.14-5.52 19.73-7.77 3.8-17.07 3.56-24.97 0.21 0.17-4.58 0.22-9.18 0.79-13.74 1.14 0.2 2.28 0.46 3.41 0.76 0.77 3.94 1.85 8.46 5.77 10.45 2.69 0.63 5.49 0.32 8.23 0.31 2.33-2.38 5.01-5.43 3.43-9.01-2.72-7.17-11.71-7.33-16.78-12.12-6.32-4.52-6.58-14.73-0.57-19.62z"/>
<path d="m505.57 89.63c2.07-0.55 4.17-1.06 6.3-1.42 0.63 0.44 1.9 1.32 2.54 1.76 0.37 1.66 0.96 3.3 0.95 5.02-0.94 1.84-2.41 3.38-4.21 4.37-1.63-0.22-3.21-0.65-4.79-1.03-1.7-2.71-2.18-5.74-0.79-8.7z"/>
<path d="m456.59 92.12c-0.11-0.88-0.21-1.76-0.31-2.64 13.39 0.31 26.78 0.14 40.16-0.01 0.76 4.32 1.06 8.7 1.11 13.08-0.86-0.02-1.71-0.04-2.56-0.06-1.04-2.78-2.25-5.48-3.61-8.11-5.68-0.1-11.37-0.1-17.05-0.06-0.23 5.31-0.16 10.63-0.09 15.95 3.6-0.04 7.17-0.42 10.74-0.83 0.35-0.64 1.04-1.93 1.38-2.57 0.11-1.12 0.22-2.23 0.34-3.34 0.93-0.07 1.86-0.15 2.8-0.23 0.05 6.08 0.05 12.17 0 18.25-0.86-0.12-1.7-0.24-2.54-0.36-0.53-2.12-0.45-4.69-2.05-6.32-3.37-1.18-7.08-0.44-10.58-0.48-0.15 6.28-0.26 12.57 0.18 18.84 2.62 0.47 5.23 1.03 7.86 1.53 0.03 0.46 0.08 1.38 0.1 1.84-3.27 0.06-6.55 0.05-9.83 0.07-0.08-0.34-0.24-1.04-0.31-1.39l0.09 1.36c-5.65-0.13-11.3 0.15-16.95-0.04 1-1.76 2.56-2.58 4.69-2.46-1.11-0.23-2.21-0.46-3.3-0.7 1.93 0.05 3.86 0.1 5.8 0.15 0.57-2.48 0.95-5.01 0.93-7.56-0.01-9.01 0.03-18.01 0.02-27.02-0.15-1.83 0.26-4.03-1.3-5.39-1.68-1.15-3.79-1.14-5.72-1.5z"/>
<path d="m338.52 109.4c2.87-2.54 6.08-5.47 10.2-5.18 3.64-0.23 7.3 2.46 7.62 6.21 0.69 7.57-0.65 15.28 0.92 22.78 1.83 0.96 3.63 1.99 5.4 3.06-5.89 0.69-11.84 0.41-17.75 0.29-13.53 0.03-27.06 0.14-40.58 0.03l0.56-1.68c1.51-0.58 3-1.18 4.51-1.76 0.68-7.17 1.59-14.55 0.14-21.66-1.62-0.57-3.31-0.89-4.98-1.27 0.03-0.31 0.08-0.93 0.11-1.24 5.04-1.43 9.91-3.37 14.9-4.98-0.03 2.2-0.04 4.41-0.12 6.61 2.55-2.81 5.26-6.6 9.52-6.34 2.75-0.31 5.25 0.97 7.58 2.27v2.99c0.49-0.04 1.48-0.1 1.97-0.13m0.28 3.45c-1.17 6.82-1.08 13.79-0.43 20.66 2.96 1.55 6.2 1.42 9.18-0.02 0.39-6.89 0.31-13.79-0.1-20.67-1.05-0.78-2.09-1.56-3.12-2.35-1.89 0.65-3.97 1.05-5.53 2.38m-16.7-1.36c-1.09 0.8-1.92 1.89-2.8 2.92-0.03 6.28-0.16 12.57 0.12 18.85 1.49 0.85 2.95 1.76 4.52 2.47 1.59-0.76 3.09-1.69 4.62-2.55 0.32-7.17 0.26-14.34-0.14-21.5-2.08-0.27-4.43-1.79-6.32-0.19z"/>
<path d="m367.83 106.5c0.61-0.42 1.22-0.83 1.84-1.25 4.43-0.69 8.92-1.23 13.41-0.9 3.28-0.02 6.22 2.55 7.18 5.59 0.77 7.15-0.39 14.38 0.7 21.52 2.15 0.01 4.31 0.05 6.46 0.16-3.4 3.34-7.65 6.34-12.67 5.97-1.18-1.15-2.37-2.28-3.55-3.42-4 2.13-9.21 5.24-13.51 2.06-4.07-2.85-3.67-8.3-2.21-12.46 4.84-3.77 10.57-6.03 16.1-8.55-0.07-1.53-0.14-3.07-0.21-4.6-0.62-0.65-1.25-1.31-1.86-1.96-1.73-0.05-3.44-0.1-5.16-0.15-2.04 1.89-3.62 4.19-4.59 6.81-1.16 0.15-2.31 0.29-3.46 0.43 0.33-3.11 0.93-6.18 1.53-9.25m5.39 18.15c-0.13 3.33 0.89 6.38 3.63 8.41 1.47-1.12 3.56-1.8 4.4-3.56 0.65-3.7 0.25-7.51 0.93-11.21-3.23 1.76-6.33 3.77-8.96 6.36z"/>
<path d="m500.46 108.54c4.83-1.15 9.46-2.97 14.1-4.74 0.04 9.46-0.41 18.93 0.05 28.37 1.48 1.86 3.69 2.94 5.59 4.31-6.66 0.21-13.33 0.25-19.99 0.19 0.06-0.5 0.19-1.51 0.25-2.01 1.36-0.45 2.72-0.91 4.1-1.35 0.46-7.57 1.19-15.2-0.06-22.74-1.39 0.02-2.78 0.03-4.17 0.05 0.03-0.52 0.09-1.56 0.13-2.08z"/>
<path d="m536.53 109.17c2.64-2.43 5.5-5.54 9.48-4.91 3.11-0.38 5.32 2 7.41 3.9 0.95 7.84-0.45 15.81 1.07 23.59 0.05 2.13 2.7 2.27 4.12 3.26 0.01 0.41 0.05 1.22 0.06 1.63-5.81-0.05-11.62 0.09-17.43 0.05 0.04-0.5 0.14-1.48 0.18-1.98 1.05-0.42 2.1-0.85 3.15-1.28 0.35-7.14 0.38-14.29-0.08-21.42-1.25-0.56-2.49-1.12-3.72-1.69-1.88 1.15-4.64 1.75-4.98 4.33-1.06 6.16-0.48 12.46-0.41 18.68 1.07 0.35 2.14 0.7 3.23 1.06 0.04 0.58 0.13 1.74 0.18 2.32-5.83-0.11-11.66-0.07-17.48-0.03 0.13-0.96 0.27-1.92 0.41-2.87 1.22-0.09 2.45-0.17 3.68-0.25 1.58-6.07 1-12.38 1.04-18.58 0.26-1.78-0.78-3.16-1.82-4.45-1.03-0.01-3.07-0.05-4.09-0.06 3.93-3.9 9.98-4.02 14.78-6.38 0.4 1.69 0.82 3.38 1.22 5.08z"/>
<path d="m564.54 107.48c5.06-3.24 11.29-3.67 17.11-2.97 3.03 0.57 5.88 3.15 5.92 6.38 0.43 6.9 0.1 13.83 0.93 20.72 1.7-0.1 3.41-0.2 5.12-0.3l-0.04 1.96c-3.2 1.84-6.46 4.73-10.41 4.14-1.89-0.61-3.35-2.04-4.95-3.15-3.22 2.57-7.42 4.27-11.53 2.93-2.64-1.38-5.15-3.95-5.1-7.11-0.52-3.78 1.9-7.38 5.13-9.15 3.83-2.14 7.99-3.59 11.97-5.42-0.06-2.02-0.14-4.04-0.21-6.06-2.31-0.6-4.68-0.93-7.05-1.08-1.9 2.26-3.65 4.63-5.1 7.21-0.51 0.05-1.52 0.15-2.03 0.2 0.13-2.77 0.22-5.53 0.24-8.3m6.81 16.25c-0.12 3.2-0.5 6.78 2.18 9.13 1.61-0.61 3.24-1.23 4.87-1.85 0.68-4.04 0.97-8.13 0.9-12.22-2.92 1.18-5.56 2.91-7.95 4.94z"/>
<path d="m672.97 106.59c5.49-3.66 13.82-4.18 18.64 0.86 2.3 2.31 2.05 5.77 2.24 8.77-1.2 0.75-2.39 1.5-3.58 2.25-5.03-0.3-10.07-0.31-15.09-0.09-0.1 4.59 0.66 10.56 5.58 12.45 4.75 2.08 9.12-1.94 13.88-1.61-2.32 2.65-5.19 4.68-7.86 6.94-4.39 1.71-9.5 2.47-13.87 0.31-4.42-2.37-6.55-7.42-6.99-12.21-1.24-6.61 1.65-13.71 7.05-17.67m5.22 1.48c-2.43 1.18-2.4 4.31-3.21 6.53 3.21 0.13 6.43 0.07 9.65 0.05-0.02-1.78-0.02-3.55-0.01-5.31-1.95-0.97-4.27-2.83-6.43-1.27z"/>
<path d="m593.57 110.19c4.83-2.93 10.35-4.4 15.71-6.06l-0.09 5.25c3.1-2.58 6.42-5.87 10.84-5.08 4.18-0.37 7.17 3.86 7.36 7.66 0.27 7.12-0.07 14.24 0.18 21.36 1.36 0.47 2.73 0.96 4.11 1.43 0.05 0.48 0.16 1.44 0.21 1.92-12.55-0.03-25.1-0.07-37.65-0.06 0.13-0.47 0.39-1.41 0.52-1.87 1.49-0.58 2.99-1.15 4.49-1.71 0.44-7.39 0.47-14.79 0.1-22.18-1.93-0.18-3.88-0.39-5.78-0.66m16.06 2.29c-1.56 6.75-1.31 13.7-1.03 20.56 1.54 0.95 3.08 1.9 4.6 2.89 1.32-0.61 2.63-1.24 3.96-1.85 0.32-0.47 0.96-1.42 1.29-1.89-0.06-6.6-0.13-13.19-0.1-19.79-1.46-0.61-2.92-1.25-4.44-1.66-1.5 0.41-2.89 1.1-4.28 1.74z"/>
<path d="m642.69 106.28c3.8-2.43 8.47-2.03 12.78-2.15 0.05 0.44 0.16 1.33 0.22 1.77l-0.01-1.83c2.04 0.56 4.08 1.15 6.14 1.71-0.11 3.32-0.58 6.62-1.42 9.84-0.73 0-2.21 0.02-2.95 0.03 0.03-0.72 0.09-2.15 0.12-2.87-1.17-1.81-2.1-3.99-4.1-5.05-2.55-0.84-5.08 0.62-7.51 1.24-2.06 6.2-2.5 12.94-0.08 19.11 0.4 0.18 1.19 0.55 1.59 0.73 1.74 0.99 3.44 2.24 5.49 2.53 2.96-0.35 5.74-1.51 8.62-2.27 0 0.65 0.02 1.97 0.02 2.63-3.61 2.98-7.59 6.38-12.59 6.03-5.85 0.53-11.49-3.42-13.37-8.89-2.17-8.01 0.06-17.59 7.05-22.56z"/>
</g>
<g fill="#566a7f">
<path d="m107.99 45.76c7.6-0.11 15.2-0.49 22.8-0.19 1.16 2.58 2.46 5.11 3.95 7.51 9.63 15.8 18.5 32.07 28.36 47.72 3.05-2.74 4.94-6.44 6.97-9.94 8.82-14.98 16.07-30.87 25.83-45.29 7.59-0.09 15.19-0.12 22.78-0.08-0.11 0.45-0.32 1.36-0.42 1.82-10.73 20.77-23.12 40.64-33.6 61.54-3.18 5.99-6.5 11.92-10.2 17.6-2.96 4.46-6.38 8.97-11.43 11.16-2.4-1.01-4.91-2.12-6.48-4.32-4.41-5.56-7.11-12.19-10.54-18.35-10.5-19.08-21.14-38.07-31.7-57.12-2.18-3.98-4.6-7.85-6.32-12.06z"/>
<path d="m226.6 45.41c4.71 0.56 9.71 0.8 13.88 3.31 2.8 1.66 4.34 4.63 6.01 7.3 0.62 3.95 1.08 7.94 1.06 11.95 0.01 22.94-0.27 45.88 0.09 68.82-6.01-0.04-13.37 0.47-17.53-4.79-5.05-6.88-3.8-15.97-4.16-24 0.51-20.85-1.88-41.81 0.65-62.59z"/>
<path d="m3.29 80.56c30.25 0.21 60.51 0.18 90.77 0.15-1.3 7.61-5.85 14.8-12.92 18.22-6.4 3.79-14.04 2.48-21.1 3.01-11.83 0.91-23.67-0.92-35.5 0.14 0.15 4.58 0.13 9.16 0 13.74 25.4 0.24 50.8-0.4 76.2-0.29-0.76 7.01-4.04 14.15-10.68 17.33-6.33 4-14.06 3.48-20.85 6.11-4.95 0.05-9.89 0-14.83 0.02-7.95-2.19-16.28-1.23-24.42-1.8-6.72-0.36-14.03-0.36-19.78-4.34-3.84-2.77-6.3-7.41-6.08-12.18 1.12-1.97-1.53-3.53-1.25-5.57-0.12-11.52-0.03-23.04 0.44-34.54z"/>
</g>
</svg>

